<svg width="24" height="24" viewBox="0 0 24 24" fill="none" xmlns="http://www.w3.org/2000/svg">
<path d="M0 12.1449L5.98062 22.5H17.9819L24 12.1449L17.9819 1.5H5.98062L0 12.1449Z" fill="#FFBF00"/>
<path d="M17.3571 10.1412L14.12 9.68899L12.6751 6.87288C12.6064 6.75945 12.508 6.66531 12.3895 6.59987C12.2711 6.53444 12.1369 6.5 12.0002 6.5C11.8636 6.5 11.7294 6.53444 11.6109 6.59987C11.4925 6.66531 11.394 6.75945 11.3254 6.87288L9.88044 9.68971L6.64339 10.1412C6.50477 10.1603 6.37449 10.2163 6.2673 10.3028C6.16011 10.3893 6.0803 10.503 6.03691 10.6308C5.99351 10.7587 5.98827 10.8956 6.02178 11.0262C6.05528 11.1568 6.12619 11.2757 6.22648 11.3696L8.56822 13.5621L8.01559 16.6583C7.99196 16.7908 8.00739 16.9269 8.06012 17.0513C8.11285 17.1758 8.20078 17.2836 8.31397 17.3625C8.42717 17.4415 8.56111 17.4885 8.70065 17.4981C8.8402 17.5078 8.97977 17.4798 9.10361 17.4173L12.0002 15.9549L14.8954 17.4158C15.0192 17.4784 15.1588 17.5064 15.2983 17.4967C15.4379 17.487 15.5718 17.44 15.685 17.3611C15.7982 17.2821 15.8861 17.1743 15.9389 17.0499C15.9916 16.9255 16.007 16.7893 15.9834 16.6569L15.4308 13.5607L17.774 11.3696C17.874 11.2758 17.9448 11.157 17.9782 11.0267C18.0117 10.8963 18.0065 10.7596 17.9633 10.6319C17.9201 10.5042 17.8406 10.3906 17.7337 10.3041C17.6269 10.2175 17.4969 10.1613 17.3586 10.1419L17.3571 10.1412Z" fill="white"/>
</svg>
