<svg width="24" height="24" viewBox="0 0 24 24" fill="none" xmlns="http://www.w3.org/2000/svg">
<path d="M0 12.1449L5.98062 22.5H17.9819L24 12.1449L17.9819 1.5H5.98062L0 12.1449Z" fill="#EB4748"/>
<path fill-rule="evenodd" clip-rule="evenodd" d="M9.50114 15.1115C9.31012 14.4275 8.83497 12.972 7.99269 11.8346C7.72556 11.4739 7.65659 10.984 7.87912 10.5942C9.71291 7.38182 10.3957 6.19489 10.65 5.75636C10.7331 5.61314 10.935 5.49959 11.1005 5.49978L11.594 5.50033H11.4974V10.1052C11.057 10.2985 10.7494 10.7385 10.7494 11.2503C10.7494 11.9407 11.309 12.5003 11.9994 12.5003C12.6897 12.5003 13.2494 11.9407 13.2494 11.2503C13.2494 10.737 12.9399 10.2959 12.4974 10.1035V5.50133L12.9 5.50178C13.0658 5.50196 13.2683 5.61613 13.3515 5.75956C13.6061 6.19838 14.2893 7.38509 16.1223 10.5941C16.345 10.984 16.2761 11.474 16.0089 11.8348C15.1667 12.9721 14.6916 14.4275 14.5006 15.1115C14.4375 15.3376 14.2337 15.4994 13.9989 15.4994H10.0028C9.76808 15.4994 9.56429 15.3376 9.50114 15.1115Z" fill="white"/>
<path d="M9 17.8314C9 17.095 9.59695 16.498 10.3333 16.498H13.6667C14.403 16.498 15 17.095 15 17.8314C15 18.1996 14.7015 18.498 14.3333 18.498H9.66667C9.29848 18.498 9 18.1996 9 17.8314Z" fill="white"/>
</svg>
