<svg width="24" height="24" viewBox="0 0 24 24" fill="none" xmlns="http://www.w3.org/2000/svg">
<path fill-rule="evenodd" clip-rule="evenodd" d="M20 19.0762C20 18.9403 20.0558 18.8107 20.1517 18.7145C21.9217 16.9397 23 14.5843 23 12C23 6.47715 18.0751 2 12 2C5.92487 2 1 6.47715 1 12C1 17.5228 5.92487 22 12 22H19.5C19.7761 22 20 21.7761 20 21.5V19.0762Z" fill="#0073E6"/>
<path d="M10.4747 14.2603V14.0266C10.4747 13.3805 10.5279 12.8656 10.6344 12.4817C10.7446 12.0979 10.9043 11.79 11.1133 11.5582C11.3224 11.3226 11.5771 11.1078 11.8774 10.914C12.1169 10.762 12.3298 10.6081 12.516 10.4523C12.7061 10.2926 12.8563 10.1216 12.9665 9.93919C13.0767 9.75677 13.1319 9.54964 13.1319 9.31781C13.1319 9.09359 13.0786 8.89596 12.9722 8.72494C12.8658 8.55392 12.7194 8.4228 12.5331 8.33159C12.3507 8.23658 12.1473 8.18907 11.923 8.18907C11.6987 8.18907 11.4878 8.24038 11.2901 8.34299C11.0962 8.44561 10.9366 8.59192 10.8111 8.78195C10.6895 8.96817 10.6268 9.1943 10.623 9.46033H8C8.0114 8.66223 8.19577 8.00855 8.5531 7.49929C8.91423 6.99002 9.3913 6.61378 9.98432 6.37055C10.5773 6.12352 11.2312 6 11.9458 6C12.7289 6 13.4246 6.12162 14.0328 6.36485C14.6448 6.60808 15.1257 6.96722 15.4754 7.44228C15.8251 7.91734 16 8.49881 16 9.1867C16 9.63896 15.924 10.038 15.7719 10.3838C15.6199 10.7297 15.407 11.0356 15.1333 11.3017C14.8634 11.5639 14.546 11.8033 14.181 12.02C13.8959 12.1872 13.6584 12.362 13.4683 12.5444C13.282 12.7268 13.1414 12.9359 13.0463 13.1715C12.9513 13.4033 12.9038 13.6884 12.9038 14.0266V14.2603H10.4747ZM11.7349 18C11.3243 18 10.9727 17.8556 10.68 17.5667C10.3911 17.2779 10.2485 16.9283 10.2523 16.5178C10.2485 16.115 10.3911 15.771 10.68 15.486C10.9727 15.1971 11.3243 15.0527 11.7349 15.0527C12.1264 15.0527 12.4704 15.1971 12.7669 15.486C13.0634 15.771 13.2136 16.115 13.2174 16.5178C13.2136 16.7914 13.1414 17.0404 13.0007 17.2646C12.8639 17.4888 12.6833 17.6675 12.459 17.8005C12.2385 17.9335 11.9971 18 11.7349 18Z" fill="white"/>
</svg>
