<svg width="24" height="24" viewBox="0 0 24 24" fill="none" xmlns="http://www.w3.org/2000/svg">
<circle cx="12" cy="12" r="11" fill="#00877C"/>
<path fill-rule="evenodd" clip-rule="evenodd" d="M8.20327 7.35385C7.85359 6.92619 7.21706 6.85887 6.84336 7.26572C5.69875 8.5119 5 10.1742 5 11.9996C5 15.8656 8.13401 18.9996 12 18.9996C15.866 18.9996 19 15.8656 19 11.9996C19 10.1751 18.302 8.5136 17.1584 7.26763C16.7847 6.86053 16.148 6.92776 15.7982 7.35555C15.4488 7.7829 15.5214 8.40756 15.8711 8.83473C16.5766 9.69674 17 10.7987 17 11.9996C17 14.761 14.7614 16.9996 12 16.9996C9.23858 16.9996 7 14.761 7 11.9996C7 10.7981 7.42382 9.69553 8.13011 8.8333C8.48001 8.40616 8.55279 7.78132 8.20327 7.35385Z" fill="white"/>
<path d="M12 5L12 11" stroke="white" stroke-width="2" stroke-linecap="round"/>
</svg>
