<svg width="24" height="24" viewBox="0 0 24 24" fill="none" xmlns="http://www.w3.org/2000/svg">
<rect x="2" y="22" width="20" height="20" rx="2" transform="rotate(-90 2 22)" fill="#EB4748"/>
<path d="M12 11.5C13.3807 11.5 14.5 10.3807 14.5 9C14.5 7.61929 13.3807 6.5 12 6.5C10.6193 6.5 9.5 7.61929 9.5 9C9.5 10.3807 10.6193 11.5 12 11.5Z" fill="white"/>
<path d="M17 15.1671C17.001 14.8481 16.933 14.5356 16.8041 14.2669C16.6751 13.9982 16.4908 13.7848 16.2731 13.6524C14.9257 12.8708 13.4694 12.4783 12 12.5009C10.5306 12.4783 9.07432 12.8708 7.72688 13.6524C7.50923 13.7848 7.32487 13.9982 7.19594 14.2669C7.06701 14.5356 6.99898 14.8481 7.00001 15.1671V17C7.00001 17.2761 7.22387 17.5 7.50001 17.5H16.5C16.7761 17.5 17 17.2761 17 17V15.1671Z" fill="white"/>
</svg>
