<svg width="24" height="24" viewBox="0 0 24 24" fill="none" xmlns="http://www.w3.org/2000/svg">
<circle cx="12" cy="12" r="11" fill="#0073E6"/>
<path d="M16.125 7.5H7.875C7.51033 7.5 7.16059 7.63879 6.90273 7.88585C6.64487 8.1329 6.5 8.46798 6.5 8.81737V9.08084L12 12.0449L17.5 9.14671V8.81737C17.5 8.46798 17.3551 8.1329 17.0973 7.88585C16.8394 7.63879 16.4897 7.5 16.125 7.5Z" fill="white"/>
<path d="M11.6562 13.1415L6.5 10.375V15.1834C6.5 15.5328 6.64487 15.8678 6.90273 16.1149C7.16059 16.362 7.51033 16.5007 7.875 16.5007H16.125C16.4897 16.5007 16.8394 16.362 17.0973 16.1149C17.3551 15.8678 17.5 15.5328 17.5 15.1834V10.375L12.3438 13.1415C12.2354 13.1871 12.1183 13.2106 12 13.2106C11.8817 13.2106 11.7646 13.1871 11.6562 13.1415Z" fill="white"/>
</svg>
