<svg width="28" height="28" viewBox="0 0 28 28" fill="none" xmlns="http://www.w3.org/2000/svg">
<path d="M6.35007 17.675C6.35007 18.2021 6.19379 18.7173 5.90098 19.1555C5.60817 19.5937 5.19198 19.9353 4.70506 20.137C4.21813 20.3387 3.68233 20.3914 3.16542 20.2886C2.6485 20.1858 2.17368 19.932 1.80101 19.5593C1.42833 19.1866 1.17453 18.7118 1.07171 18.1949C0.968891 17.678 1.02166 17.1422 1.22335 16.6553C1.42504 16.1683 1.7666 15.7522 2.20482 15.4594C2.64304 15.1665 3.15825 15.0103 3.68529 15.0103H6.35007V17.675Z" fill="#E01E5A"/>
<path d="M7.67969 17.675C7.67969 16.9683 7.96044 16.2905 8.46018 15.7908C8.95993 15.291 9.63772 15.0103 10.3445 15.0103C11.0512 15.0103 11.729 15.291 12.2288 15.7908C12.7285 16.2905 13.0092 16.9683 13.0092 17.675V24.335C13.0092 25.0418 12.7285 25.7196 12.2288 26.2193C11.729 26.7191 11.0512 26.9998 10.3445 26.9998C9.63772 26.9998 8.95993 26.7191 8.46018 26.2193C7.96044 25.7196 7.67969 25.0418 7.67969 24.335V17.675Z" fill="#E01E5A"/>
<path d="M10.3445 6.32957C9.81743 6.32957 9.30222 6.17328 8.864 5.88047C8.42578 5.58766 8.08422 5.17148 7.88253 4.68455C7.68084 4.19763 7.62807 3.66183 7.73089 3.14491C7.83371 2.62799 8.08751 2.15317 8.46019 1.7805C8.83286 1.40782 9.30768 1.15403 9.8246 1.0512C10.3415 0.948383 10.8773 1.00116 11.3642 1.20285C11.8512 1.40454 12.2673 1.74609 12.5602 2.18431C12.853 2.62253 13.0093 3.13774 13.0093 3.66478V6.32957H10.3445Z" fill="#36C5F0"/>
<path d="M10.3443 7.67993C11.051 7.67993 11.7288 7.96069 12.2286 8.46043C12.7283 8.96017 13.0091 9.63797 13.0091 10.3447C13.0091 11.0515 12.7283 11.7293 12.2286 12.229C11.7288 12.7287 11.051 13.0095 10.3443 13.0095H3.66478C2.95804 13.0095 2.28024 12.7287 1.7805 12.229C1.28075 11.7293 1 11.0515 1 10.3447C1 9.63797 1.28075 8.96017 1.7805 8.46043C2.28024 7.96069 2.95804 7.67993 3.66478 7.67993H10.3443Z" fill="#36C5F0"/>
<path d="M21.6523 10.345C21.6523 9.81792 21.8086 9.30271 22.1014 8.86449C22.3943 8.42627 22.8104 8.08471 23.2974 7.88302C23.7843 7.68133 24.3201 7.62856 24.837 7.73138C25.3539 7.8342 25.8287 8.088 26.2014 8.46068C26.5741 8.83335 26.8279 9.30817 26.9307 9.82509C27.0335 10.342 26.9808 10.8778 26.7791 11.3647C26.5774 11.8517 26.2358 12.2678 25.7976 12.5606C25.3594 12.8535 24.8442 13.0097 24.3171 13.0097H21.6523V10.345Z" fill="#2EB67D"/>
<path d="M20.3208 10.3443C20.3208 10.6942 20.2518 11.0407 20.1179 11.3641C19.984 11.6874 19.7877 11.9811 19.5403 12.2286C19.2928 12.476 18.9991 12.6723 18.6758 12.8062C18.3525 12.9401 18.0059 13.0091 17.656 13.0091C17.3061 13.0091 16.9595 12.9401 16.6362 12.8062C16.3129 12.6723 16.0192 12.476 15.7717 12.2286C15.5243 11.9811 15.328 11.6874 15.1941 11.3641C15.0601 11.0407 14.9912 10.6942 14.9912 10.3443V3.66478C14.9912 2.95804 15.272 2.28024 15.7717 1.7805C16.2715 1.28075 16.9493 1 17.656 1C18.3627 1 19.0405 1.28075 19.5403 1.7805C20.04 2.28024 20.3208 2.95804 20.3208 3.66478V10.3443Z" fill="#2EB67D"/>
<path d="M17.656 21.6704C18.183 21.6704 18.6982 21.8267 19.1365 22.1195C19.5747 22.4123 19.9162 22.8285 20.1179 23.3154C20.3196 23.8023 20.3724 24.3381 20.2696 24.8551C20.1668 25.372 19.913 25.8468 19.5403 26.2195C19.1676 26.5921 18.6928 26.8459 18.1759 26.9488C17.6589 27.0516 17.1232 26.9988 16.6362 26.7971C16.1493 26.5954 15.7331 26.2539 15.4403 25.8157C15.1475 25.3774 14.9912 24.8622 14.9912 24.3352V21.6704H17.656Z" fill="#ECB22E"/>
<path d="M17.655 20.3398C16.9483 20.3398 16.2705 20.0591 15.7707 19.5593C15.271 19.0596 14.9902 18.3818 14.9902 17.675C14.9902 16.9683 15.271 16.2905 15.7707 15.7908C16.2705 15.291 16.9483 15.0103 17.655 15.0103H24.3352C25.0419 15.0103 25.7197 15.291 26.2195 15.7908C26.7192 16.2905 27 16.9683 27 17.675C27 18.3818 26.7192 19.0596 26.2195 19.5593C25.7197 20.0591 25.0419 20.3398 24.3352 20.3398H17.655Z" fill="#ECB22E"/>
</svg>
